<?xml version="1.0" encoding="UTF-8" standalone="no"?>
<!-- Created with Inkscape (http://www.inkscape.org/) -->

<svg
   xmlns:dc="http://purl.org/dc/elements/1.1/"
   xmlns:cc="http://creativecommons.org/ns#"
   xmlns:rdf="http://www.w3.org/1999/02/22-rdf-syntax-ns#"
   xmlns:svg="http://www.w3.org/2000/svg"
   xmlns="http://www.w3.org/2000/svg"
   xmlns:sodipodi="http://sodipodi.sourceforge.net/DTD/sodipodi-0.dtd"
   xmlns:inkscape="http://www.inkscape.org/namespaces/inkscape"
   width="497.03418"
   height="58.584774"
   viewBox="0 0 500.00001 0"
   id="svg2"
   version="1.1"
   inkscape:version="0.91 r13725"
   sodipodi:docname="logotype.svg">
  <defs
     id="defs4" />
  <sodipodi:namedview
     id="base"
     pagecolor="#ffffff"
     bordercolor="#666666"
     borderopacity="1.0"
     inkscape:pageopacity="0.0"
     inkscape:pageshadow="2"
     inkscape:zoom="1.37"
     inkscape:cx="436.92409"
     inkscape:cy="28.942165"
     inkscape:document-units="px"
     inkscape:current-layer="layer1"
     showgrid="false"
     inkscape:snap-bbox="false"
     inkscape:snap-others="false"
     inkscape:snap-nodes="false"
     inkscape:snap-global="false"
     units="px"
     fit-margin-top="0"
     fit-margin-left="0"
     fit-margin-right="0"
     fit-margin-bottom="0"
     inkscape:window-width="1920"
     inkscape:window-height="1018"
     inkscape:window-x="-8"
     inkscape:window-y="-8"
     inkscape:window-maximized="1" />
  <metadata
     id="metadata7">
    <rdf:RDF>
      <cc:Work
         rdf:about="">
        <dc:format>image/svg+xml</dc:format>
        <dc:type
           rdf:resource="http://purl.org/dc/dcmitype/StillImage" />
        <dc:title></dc:title>
      </cc:Work>
    </rdf:RDF>
  </metadata>
  <g
     inkscape:label="Layer 1"
     inkscape:groupmode="layer"
     id="layer1"
     transform="translate(-1.6555932,-860.97472)">
    <flowRoot
       xml:space="preserve"
       id="flowRoot3409"
       style="font-style:normal;font-weight:normal;font-size:40px;line-height:125%;font-family:sans-serif;letter-spacing:0px;word-spacing:0px;fill:#000000;fill-opacity:1;stroke:none;stroke-width:1px;stroke-linecap:butt;stroke-linejoin:miter;stroke-opacity:1"><flowRegion
         id="flowRegion3411"><rect
           id="rect3413"
           width="242.85715"
           height="160.71428"
           x="198.80952"
           y="133.31459" /></flowRegion><flowPara
         id="flowPara3415"></flowPara></flowRoot>    <g
       id="g4235"
       transform="translate(0.72992701,-208.75912)"
       inkscape:export-xdpi="90"
       inkscape:export-ydpi="90">
      <g
         transform="matrix(0.30809383,0,0,0.3010895,-8.0604083,1031.5318)"
         id="g3376">
        <path
           style="fill:#8c8c8c;fill-opacity:1"
           d="m 72.052161,138.80388 327.947809,-7.4893 -9.5301,39.00348 -328.508409,5.77237 z"
           id="rect3338"
           inkscape:connector-curvature="0"
           sodipodi:nodetypes="ccccc" />
        <path
           style="fill:#8c8c8c;fill-opacity:1"
           d="m 61.681171,187.57975 327.947809,-7.48931 -9.5301,39.00349 -328.508419,5.77237 z"
           id="rect3338-0"
           inkscape:connector-curvature="0"
           sodipodi:nodetypes="ccccc" />
        <path
           style="fill:#8c8c8c;fill-opacity:1"
           d="m 51.029871,235.01407 327.947809,-7.48931 -9.5301,39.00349 -328.508409,5.77237 z"
           id="rect3338-8"
           inkscape:connector-curvature="0"
           sodipodi:nodetypes="ccccc" />
        <path
           style="fill:#ff6600;fill-opacity:1"
           d="m 39.257381,281.78993 327.947809,-7.48931 -9.5301,39.00349 -328.508409,5.77237 z"
           id="rect3338-7"
           inkscape:connector-curvature="0"
           sodipodi:nodetypes="ccccc" />
        <path
           style="fill:#ff4d00;fill-opacity:1"
           d="m 42.31598,268.85849 c 0.445369,-1.40323 2.588218,-9.22426 4.761888,-17.38007 2.17367,-8.15581 4.157299,-15.03392 4.408064,-15.28469 0.250766,-0.25076 10.331517,-0.76441 22.401669,-1.14144 33.651259,-1.05114 278.683459,-6.49921 292.317759,-6.49942 l 12.03869,-1.9e-4 -4.59354,18.64611 c -2.52644,10.25537 -4.72957,18.73844 -4.89583,18.85129 -0.35725,0.24247 -310.204693,5.47044 -320.322999,5.40472 -6.529449,-0.0424 -6.879157,-0.19087 -6.115701,-2.59631 z"
           id="path3370"
           inkscape:connector-curvature="0" />
        <path
           style="fill:#ff4d00;fill-opacity:1"
           d="m 63.115389,174.38601 c 0.01217,-0.65476 2.077514,-8.69047 4.589652,-17.85714 l 4.567522,-16.66667 21.304195,-0.84778 c 37.723302,-1.50116 304.165892,-7.16353 304.850812,-6.47861 0.36404,0.36403 -1.39253,8.99175 -3.90349,19.17271 l -4.56535,18.51083 -12.5389,-0.007 c -6.89638,-0.004 -57.80673,0.82312 -113.13412,1.83813 -185.740253,3.40749 -201.193576,3.58693 -201.170321,2.33586 z"
           id="path3372"
           inkscape:connector-curvature="0" />
        <path
           style="fill:#808080;fill-opacity:1"
           d="m 30.080549,317.46275 c 0.282424,-0.77554 2.525432,-8.97319 4.984462,-18.217 l 4.470964,-16.80693 29.339155,-0.78103 c 76.17945,-2.02793 296.87237,-6.80205 297.24432,-6.43011 0.352,0.352 -3.44431,16.4147 -7.84687,33.20115 l -1.12273,4.28091 -39.58684,0.78747 c -21.77275,0.4331 -86.72968,1.56985 -144.34872,2.52609 -57.61905,0.95625 -113.511108,1.98859 -124.204575,2.29408 -14.671289,0.41913 -19.316648,0.2094 -18.929166,-0.85463 z"
           id="path3374"
           inkscape:connector-curvature="0" />
      </g>
      <g
         transform="matrix(2.1937704,0,0,1.9193626,-431.09249,657.07633)"
         style="font-style:normal;font-weight:normal;font-size:40px;line-height:125%;font-family:sans-serif;letter-spacing:0px;word-spacing:0px;fill:#808080;fill-opacity:1;stroke:none;stroke-width:1px;stroke-linecap:butt;stroke-linejoin:miter;stroke-opacity:1"
         id="flowRoot3393">
        <path
           d="m 269.00586,231.06707 q -1.79688,1.48438 -4.02344,2.22656 -2.20703,0.72266 -5.33203,0.72266 l -4.23828,0 -2.51953,10.89844 -3.90625,0 6.71875,-29.08203 7.65625,0 q 2.65625,0 4.39453,0.46875 1.73828,0.46875 2.85156,1.34765 1.15235,0.87891 1.75781,2.14844 0.60547,1.25 0.60547,3.02734 0,2.38282 -1.03515,4.53125 -1.03516,2.12891 -2.92969,3.71094 z m -0.17578,-7.57812 q 0,-0.9961 -0.33203,-1.85547 -0.33203,-0.85938 -1.03516,-1.40625 -0.83984,-0.64453 -1.99219,-0.91797 -1.13281,-0.29297 -2.96875,-0.29297 l -3.61328,0 -2.7539,11.85547 3.47656,0 q 2.34375,0 3.88672,-0.42969 1.5625,-0.42969 2.69531,-1.36719 1.32812,-1.11328 1.97266,-2.5 0.66406,-1.38672 0.66406,-3.08593 z"
           style="font-style:italic;font-variant:normal;font-weight:normal;font-stretch:normal;font-family:sans-serif;-inkscape-font-specification:'sans-serif Italic';fill:#808080"
           id="path4259" />
        <path
           d="m 293.10742,223.05926 q 0,-1.03516 -0.3125,-1.73828 -0.3125,-0.72266 -0.95703,-1.23047 -0.74219,-0.60547 -1.81641,-0.83985 -1.07421,-0.23437 -2.63671,-0.23437 l -4.375,0 -2.59766,11.21094 4.10156,0 q 1.91406,0 3.32031,-0.35157 1.40625,-0.35156 2.5586,-1.23046 1.28906,-0.97657 1.99219,-2.44141 0.72265,-1.48438 0.72265,-3.14453 z m 4.33594,21.85547 -4.55078,0 -7.65625,-11.6211 -5.52735,0 -2.67578,11.6211 -3.90625,0 6.69922,-29.08203 7.92969,0 q 2.65625,0 4.31641,0.35156 1.66015,0.33203 2.89062,1.23047 1.09375,0.80078 1.71875,1.93359 0.625,1.13281 0.625,2.83203 0,3.63281 -2.28516,6.38672 -2.26562,2.73438 -5.95703,3.80859 l 8.37891,12.53907 z"
           style="font-style:italic;font-variant:normal;font-weight:normal;font-stretch:normal;font-family:sans-serif;-inkscape-font-specification:'sans-serif Italic';fill:#808080"
           id="path4261" />
        <path
           d="m 330.09961,226.12566 q 0,3.78907 -1.15234,7.30469 -1.13282,3.51563 -3.30079,6.19141 -2.22656,2.7539 -5.35156,4.33594 -3.125,1.5625 -7.05078,1.5625 -5.19531,0 -8.125,-2.83204 -2.92969,-2.85156 -2.92969,-8.08593 0,-3.98438 1.17188,-7.44141 1.17187,-3.45703 3.3789,-6.17187 2.14844,-2.61719 5.3125,-4.17969 3.1836,-1.58203 6.97266,-1.58203 5.17578,0 8.125,2.83203 2.94922,2.8125 2.94922,8.0664 z m -7.40234,11.5625 q 1.64062,-2.22656 2.48046,-4.96093 0.83985,-2.75391 0.83985,-6.05469 0,-3.98438 -2.01172,-6.11328 -1.99219,-2.14844 -5.58594,-2.14844 -2.79297,0 -5.03906,1.28906 -2.24609,1.26953 -3.86719,3.45703 -1.5625,2.14844 -2.40234,5 -0.83985,2.83204 -0.83985,5.83985 0,4.02344 1.99219,6.1914 2.01172,2.14844 5.625,2.14844 2.75391,0 5,-1.26953 2.26563,-1.26953 3.8086,-3.37891 z"
           style="font-style:italic;font-variant:normal;font-weight:normal;font-stretch:normal;font-family:sans-serif;-inkscape-font-specification:'sans-serif Italic';fill:#808080"
           id="path4263" />
      </g>
      <g
         transform="matrix(1.9356883,0,0,1.9483895,82.942742,299.30207)"
         style="font-style:normal;font-weight:normal;font-size:40px;line-height:125%;font-family:sans-serif;letter-spacing:0px;word-spacing:0px;fill:#ff4d00;fill-opacity:1;stroke:none;stroke-width:1px;stroke-linecap:butt;stroke-linejoin:miter;stroke-opacity:1"
         id="flowRoot3401">
        <path
           d="m 134.29297,424.67645 -7.55859,0 -0.66407,-5.9375 -10.70312,0 -3.39844,5.9375 -7.83203,0 17.44141,-29.08204 8.67187,0 4.04297,29.08204 z m -8.78906,-11.15235 -1.17188,-10.44922 -5.99609,10.44922 7.16797,0 z"
           style="font-style:italic;font-variant:normal;font-weight:bold;font-stretch:normal;font-family:sans-serif;-inkscape-font-specification:'sans-serif Bold Italic';fill:#ff4d00;fill-opacity:1"
           id="path4266" />
        <path
           d="m 159.19531,424.67645 -20.99609,0 6.71875,-29.08204 7.53906,0 -5.41016,23.45704 13.45704,0 -1.3086,5.625 z"
           style="font-style:italic;font-variant:normal;font-weight:bold;font-stretch:normal;font-family:sans-serif;-inkscape-font-specification:'sans-serif Bold Italic';fill:#ff4d00;fill-opacity:1"
           id="path4268" />
        <path
           d="m 195.91406,395.59441 -4.21875,18.16407 q -1.42578,6.03515 -4.82422,8.76953 -3.39843,2.71484 -9.84375,2.71484 -5.74218,0 -8.6914,-2.05078 -2.94922,-2.07031 -2.94922,-6.25 0,-0.85937 0.13672,-1.73828 0.13672,-0.87891 0.29297,-1.60156 l 4.17968,-18.00782 7.57813,0 -4.17969,18.02735 q -0.13672,0.54687 -0.23437,1.21094 -0.0781,0.64453 -0.0781,1.07421 0,1.83594 1.09375,2.79297 1.11328,0.9375 3.67188,0.9375 2.48046,0 4.0039,-1.36718 1.54297,-1.36719 2.20703,-4.25782 l 4.27735,-18.41797 7.57812,0 z"
           style="font-style:italic;font-variant:normal;font-weight:bold;font-stretch:normal;font-family:sans-serif;-inkscape-font-specification:'sans-serif Bold Italic';fill:#ff4d00;fill-opacity:1"
           id="path4270" />
      </g>
      <path
         style="fill:none;fill-opacity:1;stroke:#808080;stroke-width:1.68296039;stroke-linejoin:round;stroke-miterlimit:4;stroke-dasharray:none;stroke-opacity:1"
         d="m 497.11835,1079.7197 a 10.974218,9.1444101 0 0 1 -10.97422,9.1444 10.974218,9.1444101 0 0 1 -10.97421,-9.1444 10.974218,9.1444101 0 0 1 10.97421,-9.1444 10.974218,9.1444101 0 0 1 10.97422,9.1444 z"
         id="path4225" />
      <g
         transform="matrix(0.57007677,0,0,0.45473691,422.80677,1046.8195)"
         style="font-style:normal;font-weight:normal;font-size:40px;line-height:125%;font-family:sans-serif;letter-spacing:0px;word-spacing:0px;fill:#666666;fill-opacity:1;stroke:none;stroke-width:1px;stroke-linecap:butt;stroke-linejoin:miter;stroke-opacity:1"
         id="flowRoot4227">
        <path
           d="m 125.58789,86.580743 -5.01953,0 -9.72656,-11.5625 -5.44922,0 0,11.5625 -3.86719,0 0,-29.082031 8.14453,0 q 2.63672,0 4.39453,0.351562 1.75782,0.332031 3.16407,1.210938 1.58203,0.996093 2.46093,2.519531 0.89844,1.503906 0.89844,3.828125 0,3.144531 -1.58203,5.273437 -1.58203,2.109375 -4.35547,3.183594 l 10.9375,12.714844 z m -9.04297,-20.898438 q 0,-1.25 -0.44922,-2.207031 -0.42968,-0.976562 -1.44531,-1.640625 -0.83984,-0.566406 -1.99219,-0.78125 -1.15234,-0.234375 -2.71484,-0.234375 l -4.55078,0 0,10.976563 3.90625,0 q 1.83594,0 3.20312,-0.3125 1.36719,-0.332032 2.32422,-1.210938 0.87891,-0.820312 1.28906,-1.875 0.42969,-1.074219 0.42969,-2.714844 z"
           id="path4274"
           style="" />
      </g>
    </g>
  </g>
</svg>
